<?xml version="1.0" encoding="UTF-8" standalone="no"?>
<!-- Created with Inkscape (http://www.inkscape.org/) -->

<svg
   xmlns:dc="http://purl.org/dc/elements/1.1/"
   xmlns:cc="http://creativecommons.org/ns#"
   xmlns:rdf="http://www.w3.org/1999/02/22-rdf-syntax-ns#"
   xmlns:svg="http://www.w3.org/2000/svg"
   xmlns="http://www.w3.org/2000/svg"
   xmlns:sodipodi="http://sodipodi.sourceforge.net/DTD/sodipodi-0.dtd"
   xmlns:inkscape="http://www.inkscape.org/namespaces/inkscape"
   width="29in"
   height="17in"
   viewBox="0 0 2610 1530"
   id="svg2"
   version="1.1"
   inkscape:version="0.91 r13725"
   sodipodi:docname="Laser cut part 1.svg">
  <defs
     id="defs4">
    <clipPath
       id="clipPath3350"
       clipPathUnits="userSpaceOnUse">
      <path
         inkscape:connector-curvature="0"
         id="path3352"
         d="m 0,0 0,1836 3132,0 L 3132,0 0,0" />
    </clipPath>
    <marker
       orient="auto"
       id="DistanceX"
       style="overflow:visible"
       refX="0.0"
       refY="0.0">
      <path
         id="path4595"
         d="M 3,-3 L -3,3 M 0,-5 L  0,5"
         style="stroke:#000000; stroke-width:0.5" />
    </marker>
    <pattern
       id="Hatch"
       x="0"
       y="0"
       patternUnits="userSpaceOnUse"
       width="8"
       height="8">
      <path
         id="path4598"
         d="M8 4 l-4,4"
         stroke-width="0.25"
         stroke="#000000"
         linecap="square" />
      <path
         id="path4600"
         d="M6 2 l-4,4"
         stroke-width="0.25"
         stroke="#000000"
         linecap="square" />
      <path
         id="path4602"
         d="M4 0 l-4,4"
         stroke-width="0.25"
         stroke="#000000"
         linecap="square" />
    </pattern>
    <symbol
       id="*Model_Space" />
    <symbol
       id="*Paper_Space" />
    <symbol
       id="*Paper_Space0" />
    <marker
       orient="auto"
       id="DistanceX-6"
       style="overflow:visible"
       refX="0.0"
       refY="0.0">
      <path
         id="path4714"
         d="M 3,-3 L -3,3 M 0,-5 L  0,5"
         style="stroke:#000000; stroke-width:0.5" />
    </marker>
    <pattern
       id="Hatch-7"
       x="0"
       y="0"
       patternUnits="userSpaceOnUse"
       width="8"
       height="8">
      <path
         id="path4717"
         d="M8 4 l-4,4"
         stroke-width="0.25"
         stroke="#000000"
         linecap="square" />
      <path
         id="path4719"
         d="M6 2 l-4,4"
         stroke-width="0.25"
         stroke="#000000"
         linecap="square" />
      <path
         id="path4721"
         d="M4 0 l-4,4"
         stroke-width="0.25"
         stroke="#000000"
         linecap="square" />
    </pattern>
    <symbol
       id="$MODEL_SPACE" />
    <symbol
       id="$PAPER_SPACE" />
    <clipPath
       clipPathUnits="userSpaceOnUse"
       id="clipPath3350-9">
      <path
         d="m 0,0 0,1836 3132,0 L 3132,0 0,0"
         id="path3352-5"
         inkscape:connector-curvature="0" />
    </clipPath>
  </defs>
  <sodipodi:namedview
     id="base"
     pagecolor="#ffffff"
     bordercolor="#666666"
     borderopacity="1.0"
     inkscape:pageopacity="0.0"
     inkscape:pageshadow="2"
     inkscape:zoom="1.33"
     inkscape:cx="359.04511"
     inkscape:cy="1296.8428"
     inkscape:document-units="px"
     inkscape:current-layer="g3344"
     showgrid="false"
     units="in"
     inkscape:window-width="1536"
     inkscape:window-height="801"
     inkscape:window-x="-8"
     inkscape:window-y="-8"
     inkscape:window-maximized="1" />
  <metadata
     id="metadata7">
    <rdf:RDF>
      <cc:Work
         rdf:about="">
        <dc:format>image/svg+xml</dc:format>
        <dc:type
           rdf:resource="http://purl.org/dc/dcmitype/StillImage" />
        <dc:title></dc:title>
      </cc:Work>
    </rdf:RDF>
  </metadata>
  <g
     inkscape:label="Layer 1"
     inkscape:groupmode="layer"
     id="layer1"
     transform="translate(0,477.63785)">
    <g
       transform="matrix(1.25,0,0,-1.25,42.744827,1033.6299)"
       inkscape:label="Laser cut part 1"
       id="g3344"
       style="fill:none;stroke:#ff0000;stroke-opacity:1;stroke-width:1;stroke-miterlimit:4;stroke-dasharray:none">
      <g
         id="surface259611"
         transform="matrix(1,0,0,-1,-2.28581,1230.858)"
         style="fill:none;stroke:#ff0000;stroke-opacity:1">
        <path
           id="path5355"
           transform="matrix(1e-4,-1,-1,-1e-4,695.60999,1113.21)"
           d="M 4.588916,0.00107389 C 4.588663,2.53623 2.53377,4.590712 -0.00138655,4.590459 -2.536543,4.590205 -4.591025,2.535312 -4.590771,1.55923e-4 -4.590518,-2.535 -2.535625,-4.589482 -4.68577e-4,-4.589229 2.534688,-4.588975 4.58917,-2.534082 4.588917,-0.00283236"
           style="fill:none;stroke:#ff0000;stroke-width:0.36000001;stroke-linecap:round;stroke-linejoin:round;stroke-miterlimit:10;stroke-opacity:1"
           inkscape:connector-curvature="0" />
        <path
           id="path5357"
           transform="matrix(1e-4,-1,-1,-1e-4,623.60999,1113.21)"
           d="M 4.588916,0.00107389 C 4.588663,2.53623 2.53377,4.590712 -0.00138655,4.590459 -2.536543,4.590205 -4.591025,2.535312 -4.590771,1.55923e-4 -4.590518,-2.535 -2.535625,-4.589482 -4.68577e-4,-4.589229 2.534688,-4.588975 4.58917,-2.534082 4.588917,-0.00283236"
           style="fill:none;stroke:#ff0000;stroke-width:0.36000001;stroke-linecap:round;stroke-linejoin:round;stroke-miterlimit:10;stroke-opacity:1"
           inkscape:connector-curvature="0" />
        <path
           id="path5359"
           transform="matrix(1e-4,-1,-1,-1e-4,551.60999,1113.21)"
           d="M 4.588916,0.00107389 C 4.588663,2.53623 2.53377,4.590712 -0.00138655,4.590459 -2.536543,4.590205 -4.591025,2.535312 -4.590771,1.55923e-4 -4.590518,-2.535 -2.535625,-4.589482 -4.68577e-4,-4.589229 2.534688,-4.588975 4.58917,-2.534082 4.588917,-0.00283236"
           style="fill:none;stroke:#ff0000;stroke-width:0.36000001;stroke-linecap:round;stroke-linejoin:round;stroke-miterlimit:10;stroke-opacity:1"
           inkscape:connector-curvature="0" />
        <path
           id="path5361"
           transform="matrix(1e-4,-1,-1,-1e-4,479.60999,1113.21)"
           d="M 4.588916,0.00107389 C 4.588663,2.53623 2.53377,4.590712 -0.00138655,4.590459 -2.536543,4.590205 -4.591025,2.535312 -4.590771,1.55923e-4 -4.590518,-2.535 -2.535625,-4.589482 -4.68577e-4,-4.589229 2.534688,-4.588975 4.58917,-2.534082 4.588917,-0.00283236"
           style="fill:none;stroke:#ff0000;stroke-width:0.36000001;stroke-linecap:round;stroke-linejoin:round;stroke-miterlimit:10;stroke-opacity:1"
           inkscape:connector-curvature="0" />
        <path
           id="path5363"
           transform="matrix(1e-4,-1,-1,-1e-4,407.60999,1113.21)"
           d="M 4.588916,0.00107389 C 4.588663,2.53623 2.53377,4.590712 -0.00138655,4.590459 -2.536543,4.590205 -4.591025,2.535312 -4.590771,1.55923e-4 -4.590518,-2.535 -2.535625,-4.589482 -4.68577e-4,-4.589229 2.534688,-4.588975 4.58917,-2.534082 4.588917,-0.00283236"
           style="fill:none;stroke:#ff0000;stroke-width:0.36000001;stroke-linecap:round;stroke-linejoin:round;stroke-miterlimit:10;stroke-opacity:1"
           inkscape:connector-curvature="0" />
        <path
           id="path5365"
           transform="matrix(1e-4,-1,-1,-1e-4,335.60999,1113.21)"
           d="M 4.588916,0.00107389 C 4.588663,2.53623 2.53377,4.590712 -0.00138655,4.590459 -2.536543,4.590205 -4.591025,2.535312 -4.590771,1.55923e-4 -4.590518,-2.535 -2.535625,-4.589482 -4.68577e-4,-4.589229 2.534688,-4.588975 4.58917,-2.534082 4.588917,-0.00283236"
           style="fill:none;stroke:#ff0000;stroke-width:0.36000001;stroke-linecap:round;stroke-linejoin:round;stroke-miterlimit:10;stroke-opacity:1"
           inkscape:connector-curvature="0" />
        <path
           id="path5367"
           transform="matrix(1e-4,-1,-1,-1e-4,263.60999,1113.21)"
           d="M 4.588916,0.00107389 C 4.588663,2.53623 2.53377,4.590712 -0.00138655,4.590459 -2.536543,4.590205 -4.591025,2.535312 -4.590771,1.55923e-4 -4.590518,-2.535 -2.535625,-4.589482 -4.68577e-4,-4.589229 2.534688,-4.588975 4.58917,-2.534082 4.588917,-0.00283236"
           style="fill:none;stroke:#ff0000;stroke-width:0.36000001;stroke-linecap:round;stroke-linejoin:round;stroke-miterlimit:10;stroke-opacity:1"
           inkscape:connector-curvature="0" />
        <path
           id="path5369"
           transform="matrix(1e-4,-1,-1,-1e-4,191.61,1113.21)"
           d="M 4.588916,0.00108389 C 4.588663,2.53624 2.53377,4.590722 -0.00138655,4.590469 -2.536543,4.590215 -4.591025,2.535322 -4.590771,1.65923e-4 -4.590518,-2.53499 -2.535625,-4.589472 -4.68578e-4,-4.589219 2.534688,-4.588965 4.58917,-2.534072 4.588917,-0.00282236"
           style="fill:none;stroke:#ff0000;stroke-width:0.36000001;stroke-linecap:round;stroke-linejoin:round;stroke-miterlimit:10;stroke-opacity:1"
           inkscape:connector-curvature="0" />
        <path
           id="path5371"
           transform="matrix(1e-4,-1,-1,-1e-4,695.60999,105.20996)"
           d="M 4.588866,0.00107389 C 4.588613,2.53623 2.53372,4.590712 -0.00143655,4.590459 -2.536593,4.590205 -4.591075,2.535312 -4.590821,1.55918e-4 -4.590568,-2.535 -2.535675,-4.589482 -5.18577e-4,-4.589229 2.534638,-4.588975 4.58912,-2.534082 4.588867,-0.00283236"
           style="fill:none;stroke:#ff0000;stroke-width:0.36000001;stroke-linecap:round;stroke-linejoin:round;stroke-miterlimit:10;stroke-opacity:1"
           inkscape:connector-curvature="0" />
        <path
           id="path5373"
           transform="matrix(1e-4,-1,-1,-1e-4,623.60999,105.20996)"
           d="M 4.588866,0.00107389 C 4.588613,2.53623 2.53372,4.590712 -0.00143655,4.590459 -2.536593,4.590205 -4.591075,2.535312 -4.590821,1.55918e-4 -4.590568,-2.535 -2.535675,-4.589482 -5.18577e-4,-4.589229 2.534638,-4.588975 4.58912,-2.534082 4.588867,-0.00283236"
           style="fill:none;stroke:#ff0000;stroke-width:0.36000001;stroke-linecap:round;stroke-linejoin:round;stroke-miterlimit:10;stroke-opacity:1"
           inkscape:connector-curvature="0" />
        <path
           id="path5375"
           transform="matrix(1e-4,-1,-1,-1e-4,551.60999,105.20996)"
           d="M 4.588866,0.00107389 C 4.588613,2.53623 2.53372,4.590712 -0.00143655,4.590459 -2.536593,4.590205 -4.591075,2.535312 -4.590821,1.55918e-4 -4.590568,-2.535 -2.535675,-4.589482 -5.18577e-4,-4.589229 2.534638,-4.588975 4.58912,-2.534082 4.588867,-0.00283236"
           style="fill:none;stroke:#ff0000;stroke-width:0.36000001;stroke-linecap:round;stroke-linejoin:round;stroke-miterlimit:10;stroke-opacity:1"
           inkscape:connector-curvature="0" />
        <path
           id="path5377"
           transform="matrix(1e-4,-1,-1,-1e-4,479.60999,105.20996)"
           d="M 4.588866,0.00107389 C 4.588613,2.53623 2.53372,4.590712 -0.00143655,4.590459 -2.536593,4.590205 -4.591075,2.535312 -4.590821,1.55918e-4 -4.590568,-2.535 -2.535675,-4.589482 -5.18577e-4,-4.589229 2.534638,-4.588975 4.58912,-2.534082 4.588867,-0.00283236"
           style="fill:none;stroke:#ff0000;stroke-width:0.36000001;stroke-linecap:round;stroke-linejoin:round;stroke-miterlimit:10;stroke-opacity:1"
           inkscape:connector-curvature="0" />
        <path
           id="path5379"
           transform="matrix(1e-4,-1,-1,-1e-4,407.60999,105.20996)"
           d="M 4.588866,0.00107389 C 4.588613,2.53623 2.53372,4.590712 -0.00143655,4.590459 -2.536593,4.590205 -4.591075,2.535312 -4.590821,1.55918e-4 -4.590568,-2.535 -2.535675,-4.589482 -5.18577e-4,-4.589229 2.534638,-4.588975 4.58912,-2.534082 4.588867,-0.00283236"
           style="fill:none;stroke:#ff0000;stroke-width:0.36000001;stroke-linecap:round;stroke-linejoin:round;stroke-miterlimit:10;stroke-opacity:1"
           inkscape:connector-curvature="0" />
        <path
           id="path5381"
           transform="matrix(1e-4,-1,-1,-1e-4,335.60999,105.20996)"
           d="M 4.588866,0.00107389 C 4.588613,2.53623 2.53372,4.590712 -0.00143655,4.590459 -2.536593,4.590205 -4.591075,2.535312 -4.590821,1.55918e-4 -4.590568,-2.535 -2.535675,-4.589482 -5.18577e-4,-4.589229 2.534638,-4.588975 4.58912,-2.534082 4.588867,-0.00283236"
           style="fill:none;stroke:#ff0000;stroke-width:0.36000001;stroke-linecap:round;stroke-linejoin:round;stroke-miterlimit:10;stroke-opacity:1"
           inkscape:connector-curvature="0" />
        <path
           id="path5383"
           transform="matrix(1e-4,-1,-1,-1e-4,263.60999,105.20996)"
           d="M 4.588866,0.00107389 C 4.588613,2.53623 2.53372,4.590712 -0.00143655,4.590459 -2.536593,4.590205 -4.591075,2.535312 -4.590821,1.55918e-4 -4.590568,-2.535 -2.535675,-4.589482 -5.18577e-4,-4.589229 2.534638,-4.588975 4.58912,-2.534082 4.588867,-0.00283236"
           style="fill:none;stroke:#ff0000;stroke-width:0.36000001;stroke-linecap:round;stroke-linejoin:round;stroke-miterlimit:10;stroke-opacity:1"
           inkscape:connector-curvature="0" />
        <path
           id="path5385"
           transform="matrix(1e-4,-1,-1,-1e-4,191.61,105.20996)"
           d="M 4.588866,0.00108389 C 4.588613,2.53624 2.53372,4.590722 -0.00143655,4.590469 -2.536593,4.590215 -4.591075,2.535322 -4.590821,1.65918e-4 -4.590568,-2.53499 -2.535675,-4.589472 -5.18578e-4,-4.589219 2.534638,-4.588965 4.58912,-2.534072 4.588867,-0.00282236"
           style="fill:none;stroke:#ff0000;stroke-width:0.36000001;stroke-linecap:round;stroke-linejoin:round;stroke-miterlimit:10;stroke-opacity:1"
           inkscape:connector-curvature="0" />
        <path
           id="path5387"
           transform="matrix(1e-4,-1,-1,-1e-4,119.61,1113.21)"
           d="M 4.588916,0.00108389 C 4.588663,2.53624 2.53377,4.590722 -0.00138655,4.590469 -2.536543,4.590215 -4.591025,2.535322 -4.590771,1.65923e-4 -4.590518,-2.53499 -2.535625,-4.589472 -4.68578e-4,-4.589219 2.534688,-4.588965 4.58917,-2.534072 4.588917,-0.00282236"
           style="fill:none;stroke:#ff0000;stroke-width:0.36000001;stroke-linecap:round;stroke-linejoin:round;stroke-miterlimit:10;stroke-opacity:1"
           inkscape:connector-curvature="0" />
        <path
           id="path5389"
           transform="matrix(1e-4,-1,-1,-1e-4,119.61,1041.21)"
           d="M 4.588896,0.00108389 C 4.588643,2.53624 2.53375,4.590722 -0.00140655,4.590469 -2.536563,4.590215 -4.591045,2.535322 -4.590791,1.65921e-4 -4.590538,-2.53499 -2.535645,-4.589472 -4.88578e-4,-4.589219 2.534668,-4.588965 4.58915,-2.534072 4.588897,-0.00282236"
           style="fill:none;stroke:#ff0000;stroke-width:0.36000001;stroke-linecap:round;stroke-linejoin:round;stroke-miterlimit:10;stroke-opacity:1"
           inkscape:connector-curvature="0" />
        <path
           id="path5391"
           transform="matrix(1e-4,-1,-1,-1e-4,119.61,969.20999)"
           d="M 4.588896,0.00108389 C 4.588643,2.53624 2.53375,4.590722 -0.00140655,4.590469 -2.536563,4.590215 -4.591045,2.535322 -4.590791,1.65921e-4 -4.590538,-2.53499 -2.535645,-4.589472 -4.88578e-4,-4.589219 2.534668,-4.588965 4.58915,-2.534072 4.588897,-0.00282236"
           style="fill:none;stroke:#ff0000;stroke-width:0.36000001;stroke-linecap:round;stroke-linejoin:round;stroke-miterlimit:10;stroke-opacity:1"
           inkscape:connector-curvature="0" />
        <path
           id="path5393"
           transform="matrix(1e-4,-1,-1,-1e-4,119.61,897.20999)"
           d="M 4.588896,0.00108389 C 4.588643,2.53624 2.53375,4.590722 -0.00140655,4.590469 -2.536563,4.590215 -4.591045,2.535322 -4.590791,1.65921e-4 -4.590538,-2.53499 -2.535645,-4.589472 -4.88578e-4,-4.589219 2.534668,-4.588965 4.58915,-2.534072 4.588897,-0.00282236"
           style="fill:none;stroke:#ff0000;stroke-width:0.36000001;stroke-linecap:round;stroke-linejoin:round;stroke-miterlimit:10;stroke-opacity:1"
           inkscape:connector-curvature="0" />
        <path
           id="path5395"
           transform="matrix(1e-4,-1,-1,-1e-4,119.61,825.20999)"
           d="M 4.588896,0.00108389 C 4.588643,2.53624 2.53375,4.590722 -0.00140655,4.590469 -2.536563,4.590215 -4.591045,2.535322 -4.590791,1.65921e-4 -4.590538,-2.53499 -2.535645,-4.589472 -4.88578e-4,-4.589219 2.534668,-4.588965 4.58915,-2.534072 4.588897,-0.00282236"
           style="fill:none;stroke:#ff0000;stroke-width:0.36000001;stroke-linecap:round;stroke-linejoin:round;stroke-miterlimit:10;stroke-opacity:1"
           inkscape:connector-curvature="0" />
        <path
           id="path5397"
           transform="matrix(1e-4,-1,-1,-1e-4,119.61,753.20999)"
           d="M 4.588896,0.00108389 C 4.588643,2.53624 2.53375,4.590722 -0.00140655,4.590469 -2.536563,4.590215 -4.591045,2.535322 -4.590791,1.65921e-4 -4.590538,-2.53499 -2.535645,-4.589472 -4.88578e-4,-4.589219 2.534668,-4.588965 4.58915,-2.534072 4.588897,-0.00282236"
           style="fill:none;stroke:#ff0000;stroke-width:0.36000001;stroke-linecap:round;stroke-linejoin:round;stroke-miterlimit:10;stroke-opacity:1"
           inkscape:connector-curvature="0" />
        <path
           id="path5399"
           transform="matrix(1e-4,-1,-1,-1e-4,119.61,681.20996)"
           d="M 4.588866,0.00108389 C 4.588613,2.53624 2.53372,4.590722 -0.00143655,4.590469 -2.536593,4.590215 -4.591075,2.535322 -4.590821,1.65918e-4 -4.590568,-2.53499 -2.535675,-4.589472 -5.18578e-4,-4.589219 2.534638,-4.588965 4.58912,-2.534072 4.588867,-0.00282236"
           style="fill:none;stroke:#ff0000;stroke-width:0.36000001;stroke-linecap:round;stroke-linejoin:round;stroke-miterlimit:10;stroke-opacity:1"
           inkscape:connector-curvature="0" />
        <path
           id="path5401"
           transform="matrix(1e-4,-1,-1,-1e-4,119.61,609.20996)"
           d="M 4.588866,0.00108389 C 4.588613,2.53624 2.53372,4.590722 -0.00143655,4.590469 -2.536593,4.590215 -4.591075,2.535322 -4.590821,1.65918e-4 -4.590568,-2.53499 -2.535675,-4.589472 -5.18578e-4,-4.589219 2.534638,-4.588965 4.58912,-2.534072 4.588867,-0.00282236"
           style="fill:none;stroke:#ff0000;stroke-width:0.36000001;stroke-linecap:round;stroke-linejoin:round;stroke-miterlimit:10;stroke-opacity:1"
           inkscape:connector-curvature="0" />
        <path
           id="path5403"
           transform="matrix(1e-4,-1,-1,-1e-4,119.61,537.20996)"
           d="M 4.588866,0.00108389 C 4.588613,2.53624 2.53372,4.590722 -0.00143655,4.590469 -2.536593,4.590215 -4.591075,2.535322 -4.590821,1.65918e-4 -4.590568,-2.53499 -2.535675,-4.589472 -5.18578e-4,-4.589219 2.534638,-4.588965 4.58912,-2.534072 4.588867,-0.00282236"
           style="fill:none;stroke:#ff0000;stroke-width:0.36000001;stroke-linecap:round;stroke-linejoin:round;stroke-miterlimit:10;stroke-opacity:1"
           inkscape:connector-curvature="0" />
        <path
           id="path5405"
           transform="matrix(1e-4,-1,-1,-1e-4,119.61,465.20996)"
           d="M 4.588866,0.00108389 C 4.588613,2.53624 2.53372,4.590722 -0.00143655,4.590469 -2.536593,4.590215 -4.591075,2.535322 -4.590821,1.65918e-4 -4.590568,-2.53499 -2.535675,-4.589472 -5.18578e-4,-4.589219 2.534638,-4.588965 4.58912,-2.534072 4.588867,-0.00282236"
           style="fill:none;stroke:#ff0000;stroke-width:0.36000001;stroke-linecap:round;stroke-linejoin:round;stroke-miterlimit:10;stroke-opacity:1"
           inkscape:connector-curvature="0" />
        <path
           id="path5407"
           transform="matrix(1e-4,-1,-1,-1e-4,119.61,393.20996)"
           d="M 4.588866,0.00108389 C 4.588613,2.53624 2.53372,4.590722 -0.00143655,4.590469 -2.536593,4.590215 -4.591075,2.535322 -4.590821,1.65918e-4 -4.590568,-2.53499 -2.535675,-4.589472 -5.18578e-4,-4.589219 2.534638,-4.588965 4.58912,-2.534072 4.588867,-0.00282236"
           style="fill:none;stroke:#ff0000;stroke-width:0.36000001;stroke-linecap:round;stroke-linejoin:round;stroke-miterlimit:10;stroke-opacity:1"
           inkscape:connector-curvature="0" />
        <path
           id="path5409"
           transform="matrix(1e-4,-1,-1,-1e-4,119.61,321.20996)"
           d="M 4.588866,0.00108389 C 4.588613,2.53624 2.53372,4.590722 -0.00143655,4.590469 -2.536593,4.590215 -4.591075,2.535322 -4.590821,1.65918e-4 -4.590568,-2.53499 -2.535675,-4.589472 -5.18578e-4,-4.589219 2.534638,-4.588965 4.58912,-2.534072 4.588867,-0.00282236"
           style="fill:none;stroke:#ff0000;stroke-width:0.36000001;stroke-linecap:round;stroke-linejoin:round;stroke-miterlimit:10;stroke-opacity:1"
           inkscape:connector-curvature="0" />
        <path
           id="path5411"
           transform="matrix(1e-4,-1,-1,-1e-4,119.61,249.20996)"
           d="M 4.588866,0.00108389 C 4.588613,2.53624 2.53372,4.590722 -0.00143655,4.590469 -2.536593,4.590215 -4.591075,2.535322 -4.590821,1.65918e-4 -4.590568,-2.53499 -2.535675,-4.589472 -5.18578e-4,-4.589219 2.534638,-4.588965 4.58912,-2.534072 4.588867,-0.00282236"
           style="fill:none;stroke:#ff0000;stroke-width:0.36000001;stroke-linecap:round;stroke-linejoin:round;stroke-miterlimit:10;stroke-opacity:1"
           inkscape:connector-curvature="0" />
        <path
           id="path5413"
           transform="matrix(1e-4,-1,-1,-1e-4,119.61,177.20996)"
           d="M 4.588866,0.00108389 C 4.588613,2.53624 2.53372,4.590722 -0.00143655,4.590469 -2.536593,4.590215 -4.591075,2.535322 -4.590821,1.65918e-4 -4.590568,-2.53499 -2.535675,-4.589472 -5.18578e-4,-4.589219 2.534638,-4.588965 4.58912,-2.534072 4.588867,-0.00282236"
           style="fill:none;stroke:#ff0000;stroke-width:0.36000001;stroke-linecap:round;stroke-linejoin:round;stroke-miterlimit:10;stroke-opacity:1"
           inkscape:connector-curvature="0" />
        <path
           id="path5415"
           transform="matrix(1e-4,-1,-1,-1e-4,119.61,105.20996)"
           d="M 4.588866,0.00108389 C 4.588613,2.53624 2.53372,4.590722 -0.00143655,4.590469 -2.536593,4.590215 -4.591075,2.535322 -4.590821,1.65918e-4 -4.590568,-2.53499 -2.535675,-4.589472 -5.18578e-4,-4.589219 2.534638,-4.588965 4.58912,-2.534072 4.588867,-0.00282236"
           style="fill:none;stroke:#ff0000;stroke-width:0.36000001;stroke-linecap:round;stroke-linejoin:round;stroke-miterlimit:10;stroke-opacity:1"
           inkscape:connector-curvature="0" />
        <path
           id="path5417"
           transform="matrix(1e-4,-1,-1,-1e-4,267.57001,888.20999)"
           d="M 108.0889,-0.00121236 C 108.09074,59.6941 59.699181,108.0877 0.00386855,108.08954 -59.687538,108.09139 -108.08504,59.703733 -108.09079,0.00841967 -108.09654,-59.682987 -59.708889,-108.08049 -0.0174822,-108.09015 59.677831,-108.0998 108.07924,-59.716057 108.0889,-0.0207436"
           style="fill:none;stroke:#ff0000;stroke-width:0.36000001;stroke-linecap:round;stroke-linejoin:round;stroke-miterlimit:10;stroke-opacity:1"
           inkscape:connector-curvature="0" />
        <path
           id="path5419"
           transform="matrix(1e-4,-1,-1,-1e-4,267.57001,600.20996)"
           d="M 108.08887,-0.00121236 C 108.09071,59.6941 59.699151,108.0877 0.00383855,108.08954 -59.687568,108.09139 -108.08507,59.703733 -108.09082,0.00841967 -108.09657,-59.682987 -59.708919,-108.08049 -0.013606,-108.09015 c 59.691407,-0.01 108.092816,48.374093 108.102476,108.0694064"
           style="fill:none;stroke:#ff0000;stroke-width:0.36000001;stroke-linecap:round;stroke-linejoin:round;stroke-miterlimit:10;stroke-opacity:1"
           inkscape:connector-curvature="0" />
        <path
           id="path5421"
           transform="matrix(1e-4,-1,-1,-1e-4,267.57001,312.20996)"
           d="M 108.08887,-0.00121236 C 108.09071,59.6941 59.699151,108.0877 0.00383855,108.08954 -59.687568,108.09139 -108.08507,59.703733 -108.09082,0.00841967 -108.09657,-59.682987 -59.708919,-108.08049 -0.013606,-108.09015 c 59.691407,-0.01 108.092816,48.374093 108.102476,108.0694064"
           style="fill:none;stroke:#ff0000;stroke-width:0.36000001;stroke-linecap:round;stroke-linejoin:round;stroke-miterlimit:10;stroke-opacity:1"
           inkscape:connector-curvature="0" />
        <path
           id="path5423"
           transform="matrix(1e-4,-1,-1,-1e-4,555.57001,888.20999)"
           d="M 108.0889,-0.00121236 C 108.09074,59.6941 59.699181,108.0877 0.00386855,108.08954 -59.687538,108.09139 -108.08504,59.703733 -108.09079,0.00841967 -108.09654,-59.682987 -59.708889,-108.08049 -0.0174822,-108.09015 59.677831,-108.0998 108.07924,-59.716057 108.0889,-0.0207436"
           style="fill:none;stroke:#ff0000;stroke-width:0.36000001;stroke-linecap:round;stroke-linejoin:round;stroke-miterlimit:10;stroke-opacity:1"
           inkscape:connector-curvature="0" />
        <path
           id="path5425"
           transform="matrix(1e-4,-1,-1,-1e-4,555.57001,600.20996)"
           d="M 108.08887,-0.00121236 C 108.09071,59.6941 59.699151,108.0877 0.00383855,108.08954 -59.687568,108.09139 -108.08507,59.703733 -108.09082,0.00841967 -108.09657,-59.682987 -59.708919,-108.08049 -0.013606,-108.09015 c 59.691407,-0.01 108.092816,48.374093 108.102476,108.0694064"
           style="fill:none;stroke:#ff0000;stroke-width:0.36000001;stroke-linecap:round;stroke-linejoin:round;stroke-miterlimit:10;stroke-opacity:1"
           inkscape:connector-curvature="0" />
        <path
           id="path5427"
           transform="matrix(1e-4,-1,-1,-1e-4,555.57001,312.20996)"
           d="M 108.08887,-0.00121236 C 108.09071,59.6941 59.699151,108.0877 0.00383855,108.08954 -59.687568,108.09139 -108.08507,59.703733 -108.09082,0.00841967 -108.09657,-59.682987 -59.708919,-108.08049 -0.013606,-108.09015 c 59.691407,-0.01 108.092816,48.374093 108.102476,108.0694064"
           style="fill:none;stroke:#ff0000;stroke-width:0.36000001;stroke-linecap:round;stroke-linejoin:round;stroke-miterlimit:10;stroke-opacity:1"
           inkscape:connector-curvature="0" />
        <path
           id="path5429"
           transform="matrix(1,0,0,-1,0,1224)"
           d="m 735.66016,1154.6992 -651.960941,0 0,-1079.999981 651.960941,0 0,1079.999981"
           style="fill:none;stroke:#ff0000;stroke-width:0.36000001;stroke-linecap:round;stroke-linejoin:round;stroke-miterlimit:10;stroke-opacity:1"
           inkscape:connector-curvature="0" />
        <path
           id="path5431"
           transform="matrix(1e-4,-1,-1,-1e-4,928.70996,799.83002)"
           d="M 9.091739,-6.83261e-5 C 9.091237,5.019463 5.020517,9.089368 9.86113e-4,9.088866 -5.018545,9.088364 -9.088451,5.021551 -9.091855,0.00201956 -9.091353,-5.017512 -5.020634,-9.087417 -0.00110217,-9.090821 5.018429,-9.090319 9.088335,-5.023506 9.091739,-6.83261e-5"
           style="fill:none;stroke:#ff0000;stroke-width:0.36000001;stroke-linecap:round;stroke-linejoin:round;stroke-miterlimit:10;stroke-opacity:1"
           inkscape:connector-curvature="0" />
        <path
           id="path5433"
           transform="matrix(1e-4,-1,-1,-1e-4,826.65002,799.83002)"
           d="M 9.091739,-0.00141458 C 9.091237,5.022023 5.020517,9.088022 9.85857e-4,9.091426 -5.018545,9.090924 -9.088451,5.020205 -9.091855,6.73314e-4 -9.091353,-5.018858 -5.020634,-9.088763 -0.00110242,-9.088261 5.018429,-9.091666 9.088335,-5.020946 9.091739,-0.00141458"
           style="fill:none;stroke:#ff0000;stroke-width:0.36000001;stroke-linecap:round;stroke-linejoin:round;stroke-miterlimit:10;stroke-opacity:1"
           inkscape:connector-curvature="0" />
        <path
           id="path5435"
           transform="matrix(1e-4,-1,-1,-1e-4,928.70996,526.22998)"
           d="M 9.089355,-6.85645e-5 C 9.088853,5.019463 5.02204,9.089368 -0.00139764,9.088866 -5.020929,9.088364 -9.090835,5.021551 -9.090333,0.00201972 -9.089831,-5.017511 -5.023018,-9.087417 4.20332e-4,-9.090821 5.019952,-9.090319 9.089857,-5.023506 9.089355,-6.85645e-5"
           style="fill:none;stroke:#ff0000;stroke-width:0.36000001;stroke-linecap:round;stroke-linejoin:round;stroke-miterlimit:10;stroke-opacity:1"
           inkscape:connector-curvature="0" />
        <path
           id="path5437"
           transform="matrix(1e-4,-1,-1,-1e-4,826.65002,526.22998)"
           d="M 9.089355,-0.00141481 C 9.088853,5.022023 5.02204,9.088022 -0.00139789,9.091426 -5.020929,9.090924 -9.090835,5.020205 -9.090333,6.73467e-4 -9.089831,-5.018858 -5.023017,-9.088764 4.20076e-4,-9.088261 5.019952,-9.091666 9.089857,-5.020946 9.089355,-0.00141481"
           style="fill:none;stroke:#ff0000;stroke-width:0.36000001;stroke-linecap:round;stroke-linejoin:round;stroke-miterlimit:10;stroke-opacity:1"
           inkscape:connector-curvature="0" />
        <path
           id="path5439"
           transform="matrix(1e-4,-1,-1,-1e-4,928.70996,238.58997)"
           d="M 9.08997,-6.8503e-5 C 9.089468,5.019463 5.018749,9.089368 -7.82637e-4,9.088866 -5.020314,9.088364 -9.09022,5.021551 -9.089718,0.00201978 -9.089216,-5.017511 -5.022403,-9.087417 -0.00287092,-9.090822 5.020567,-9.090319 9.090472,-5.023506 9.08997,-6.8503e-5"
           style="fill:none;stroke:#ff0000;stroke-width:0.36000001;stroke-linecap:round;stroke-linejoin:round;stroke-miterlimit:10;stroke-opacity:1"
           inkscape:connector-curvature="0" />
        <path
           id="path5441"
           transform="matrix(1e-4,-1,-1,-1e-4,826.65002,238.58997)"
           d="M 9.08997,-0.00141475 C 9.089468,5.022023 5.018749,9.088022 -7.82893e-4,9.091426 -5.020314,9.090924 -9.09022,5.020205 -9.089718,6.73528e-4 -9.089216,-5.018858 -5.022402,-9.088763 -0.00287117,-9.088262 5.020567,-9.091665 9.090472,-5.020946 9.08997,-0.00141475"
           style="fill:none;stroke:#ff0000;stroke-width:0.36000001;stroke-linecap:round;stroke-linejoin:round;stroke-miterlimit:10;stroke-opacity:1"
           inkscape:connector-curvature="0" />
        <path
           id="path5443"
           transform="matrix(1e-4,-1,-1,-1e-4,1257.03,1111.05)"
           d="M 4.589063,-7.61094e-4 C 4.588809,2.534395 2.533916,4.588877 -0.00124011,4.588624 -2.536396,4.58837 -4.590878,2.533477 -4.590625,0.00222719 -4.590372,-2.532929 -2.535478,-4.591317 -3.22144e-4,-4.591064 2.534834,-4.59081 4.589316,-2.535917 4.589063,-7.61094e-4"
           style="fill:none;stroke:#ff0000;stroke-width:0.36000001;stroke-linecap:round;stroke-linejoin:round;stroke-miterlimit:10;stroke-opacity:1"
           inkscape:connector-curvature="0" />
        <path
           id="path5445"
           transform="matrix(1e-4,-1,-1,-1e-4,1257.03,1039.05)"
           d="M 4.589063,-7.61094e-4 C 4.588809,2.534395 2.533916,4.588877 -0.00124011,4.588624 -2.536396,4.58837 -4.590878,2.533477 -4.590625,0.00222719 -4.590372,-2.532929 -2.535478,-4.591317 -3.22144e-4,-4.591064 2.534834,-4.59081 4.589316,-2.535917 4.589063,-7.61094e-4"
           style="fill:none;stroke:#ff0000;stroke-width:0.36000001;stroke-linecap:round;stroke-linejoin:round;stroke-miterlimit:10;stroke-opacity:1"
           inkscape:connector-curvature="0" />
        <path
           id="path5447"
           transform="matrix(1e-4,-1,-1,-1e-4,1257.03,967.04999)"
           d="M 4.589053,-7.61095e-4 C 4.588799,2.534395 2.533906,4.588877 -0.00125011,4.588624 -2.536406,4.58837 -4.590888,2.533477 -4.590635,0.00222719 -4.590382,-2.532929 -2.535488,-4.591317 -3.32144e-4,-4.591064 2.534824,-4.59081 4.589306,-2.535917 4.589053,-7.61095e-4"
           style="fill:none;stroke:#ff0000;stroke-width:0.36000001;stroke-linecap:round;stroke-linejoin:round;stroke-miterlimit:10;stroke-opacity:1"
           inkscape:connector-curvature="0" />
        <path
           id="path5449"
           transform="matrix(1e-4,-1,-1,-1e-4,1257.03,247.05005)"
           d="M 4.589113,-7.61089e-4 C 4.588859,2.534395 2.533966,4.588877 -0.00119011,4.588624 -2.536346,4.58837 -4.590828,2.533477 -4.590575,0.00222719 -4.590322,-2.532929 -2.535428,-4.591317 -2.72144e-4,-4.591064 2.534884,-4.59081 4.589366,-2.535917 4.589113,-7.61089e-4"
           style="fill:none;stroke:#ff0000;stroke-width:0.36000001;stroke-linecap:round;stroke-linejoin:round;stroke-miterlimit:10;stroke-opacity:1"
           inkscape:connector-curvature="0" />
        <path
           id="path5451"
           transform="matrix(1e-4,-1,-1,-1e-4,1257.03,175.05005)"
           d="M 4.589113,-7.61089e-4 C 4.588859,2.534395 2.533966,4.588877 -0.00119011,4.588624 -2.536346,4.58837 -4.590828,2.533477 -4.590575,0.00222719 -4.590322,-2.532929 -2.535428,-4.591317 -2.72144e-4,-4.591064 2.534884,-4.59081 4.589366,-2.535917 4.589113,-7.61089e-4"
           style="fill:none;stroke:#ff0000;stroke-width:0.36000001;stroke-linecap:round;stroke-linejoin:round;stroke-miterlimit:10;stroke-opacity:1"
           inkscape:connector-curvature="0" />
        <path
           id="path5453"
           transform="matrix(1e-4,-1,-1,-1e-4,1257.03,103.05005)"
           d="M 4.589113,-7.61089e-4 C 4.588859,2.534395 2.533966,4.588877 -0.00119011,4.588624 -2.536346,4.58837 -4.590828,2.533477 -4.590575,0.00222719 -4.590322,-2.532929 -2.535428,-4.591317 -2.72144e-4,-4.591064 2.534884,-4.59081 4.589366,-2.535917 4.589113,-7.61089e-4"
           style="fill:none;stroke:#ff0000;stroke-width:0.36000001;stroke-linecap:round;stroke-linejoin:round;stroke-miterlimit:10;stroke-opacity:1"
           inkscape:connector-curvature="0" />
        <path
           id="path5455"
           transform="matrix(1e-4,-1,-1,-1e-4,883.53003,895.04999)"
           d="M 4.589053,-7.61095e-4 C 4.588799,2.534395 2.533906,4.588877 -0.00125011,4.588624 -2.536406,4.58837 -4.590888,2.533477 -4.590635,0.00222719 -4.590382,-2.532929 -2.535488,-4.591317 -3.32144e-4,-4.591064 2.534824,-4.59081 4.589306,-2.535917 4.589053,-7.61095e-4"
           style="fill:none;stroke:#ff0000;stroke-width:0.36000001;stroke-linecap:round;stroke-linejoin:round;stroke-miterlimit:10;stroke-opacity:1"
           inkscape:connector-curvature="0" />
        <path
           id="path5457"
           transform="matrix(1e-4,-1,-1,-1e-4,883.53003,967.04999)"
           d="M 4.589053,-7.61095e-4 C 4.588799,2.534395 2.533906,4.588877 -0.00125011,4.588624 -2.536406,4.58837 -4.590888,2.533477 -4.590635,0.00222719 -4.590382,-2.532929 -2.535488,-4.591317 -3.32144e-4,-4.591064 2.534824,-4.59081 4.589306,-2.535917 4.589053,-7.61095e-4"
           style="fill:none;stroke:#ff0000;stroke-width:0.36000001;stroke-linecap:round;stroke-linejoin:round;stroke-miterlimit:10;stroke-opacity:1"
           inkscape:connector-curvature="0" />
        <path
           id="path5459"
           transform="matrix(1e-4,-1,-1,-1e-4,883.53003,1039.05)"
           d="M 4.589063,-7.61094e-4 C 4.588809,2.534395 2.533916,4.588877 -0.00124011,4.588624 -2.536396,4.58837 -4.590878,2.533477 -4.590625,0.00222719 -4.590372,-2.532929 -2.535478,-4.591317 -3.22144e-4,-4.591064 2.534834,-4.59081 4.589316,-2.535917 4.589063,-7.61094e-4"
           style="fill:none;stroke:#ff0000;stroke-width:0.36000001;stroke-linecap:round;stroke-linejoin:round;stroke-miterlimit:10;stroke-opacity:1"
           inkscape:connector-curvature="0" />
        <path
           id="path5461"
           transform="matrix(1e-4,-1,-1,-1e-4,811.53003,895.04999)"
           d="M 4.589053,-7.61095e-4 C 4.588799,2.534395 2.533906,4.588877 -0.00125011,4.588624 -2.536406,4.58837 -4.590888,2.533477 -4.590635,0.00222719 -4.590382,-2.532929 -2.535488,-4.591317 -3.32144e-4,-4.591064 2.534824,-4.59081 4.589306,-2.535917 4.589053,-7.61095e-4"
           style="fill:none;stroke:#ff0000;stroke-width:0.36000001;stroke-linecap:round;stroke-linejoin:round;stroke-miterlimit:10;stroke-opacity:1"
           inkscape:connector-curvature="0" />
        <path
           id="path5463"
           transform="matrix(1e-4,-1,-1,-1e-4,811.53003,967.04999)"
           d="M 4.589053,-7.61095e-4 C 4.588799,2.534395 2.533906,4.588877 -0.00125011,4.588624 -2.536406,4.58837 -4.590888,2.533477 -4.590635,0.00222719 -4.590382,-2.532929 -2.535488,-4.591317 -3.32144e-4,-4.591064 2.534824,-4.59081 4.589306,-2.535917 4.589053,-7.61095e-4"
           style="fill:none;stroke:#ff0000;stroke-width:0.36000001;stroke-linecap:round;stroke-linejoin:round;stroke-miterlimit:10;stroke-opacity:1"
           inkscape:connector-curvature="0" />
        <path
           id="path5465"
           transform="matrix(1e-4,-1,-1,-1e-4,811.53003,1039.05)"
           d="M 4.589063,-7.61094e-4 C 4.588809,2.534395 2.533916,4.588877 -0.00124011,4.588624 -2.536396,4.58837 -4.590878,2.533477 -4.590625,0.00222719 -4.590372,-2.532929 -2.535478,-4.591317 -3.22144e-4,-4.591064 2.534834,-4.59081 4.589316,-2.535917 4.589063,-7.61094e-4"
           style="fill:none;stroke:#ff0000;stroke-width:0.36000001;stroke-linecap:round;stroke-linejoin:round;stroke-miterlimit:10;stroke-opacity:1"
           inkscape:connector-curvature="0" />
        <path
           id="path5467"
           transform="matrix(1e-4,-1,-1,-1e-4,1171.53,1111.05)"
           d="M 4.589063,-7.61094e-4 C 4.588809,2.534395 2.533916,4.588877 -0.00124011,4.588624 -2.536396,4.58837 -4.590878,2.533477 -4.590625,0.00222719 -4.590372,-2.532929 -2.535478,-4.591317 -3.22144e-4,-4.591064 2.534834,-4.59081 4.589316,-2.535917 4.589063,-7.61094e-4"
           style="fill:none;stroke:#ff0000;stroke-width:0.36000001;stroke-linecap:round;stroke-linejoin:round;stroke-miterlimit:10;stroke-opacity:1"
           inkscape:connector-curvature="0" />
        <path
           id="path5469"
           transform="matrix(1e-4,-1,-1,-1e-4,1099.53,1111.05)"
           d="M 4.589063,-7.61094e-4 C 4.588809,2.534395 2.533916,4.588877 -0.00124011,4.588624 -2.536396,4.58837 -4.590878,2.533477 -4.590625,0.00222719 -4.590372,-2.532929 -2.535478,-4.591317 -3.22144e-4,-4.591064 2.534834,-4.59081 4.589316,-2.535917 4.589063,-7.61094e-4"
           style="fill:none;stroke:#ff0000;stroke-width:0.36000001;stroke-linecap:round;stroke-linejoin:round;stroke-miterlimit:10;stroke-opacity:1"
           inkscape:connector-curvature="0" />
        <path
           id="path5471"
           transform="matrix(1e-4,-1,-1,-1e-4,1027.53,1111.05)"
           d="M 4.589063,-7.61094e-4 C 4.588809,2.534395 2.533916,4.588877 -0.00124011,4.588624 -2.536396,4.58837 -4.590878,2.533477 -4.590625,0.00222719 -4.590372,-2.532929 -2.535478,-4.591317 -3.22144e-4,-4.591064 2.534834,-4.59081 4.589316,-2.535917 4.589063,-7.61094e-4"
           style="fill:none;stroke:#ff0000;stroke-width:0.36000001;stroke-linecap:round;stroke-linejoin:round;stroke-miterlimit:10;stroke-opacity:1"
           inkscape:connector-curvature="0" />
        <path
           id="path5473"
           transform="matrix(1e-4,-1,-1,-1e-4,955.53003,1111.05)"
           d="M 4.589063,-7.61094e-4 C 4.588809,2.534395 2.533916,4.588877 -0.00124011,4.588624 -2.536396,4.58837 -4.590878,2.533477 -4.590625,0.00222719 -4.590372,-2.532929 -2.535478,-4.591317 -3.22144e-4,-4.591064 2.534834,-4.59081 4.589316,-2.535917 4.589063,-7.61094e-4"
           style="fill:none;stroke:#ff0000;stroke-width:0.36000001;stroke-linecap:round;stroke-linejoin:round;stroke-miterlimit:10;stroke-opacity:1"
           inkscape:connector-curvature="0" />
        <path
           id="path5475"
           transform="matrix(1e-4,-1,-1,-1e-4,883.53003,1111.05)"
           d="M 4.589063,-7.61094e-4 C 4.588809,2.534395 2.533916,4.588877 -0.00124011,4.588624 -2.536396,4.58837 -4.590878,2.533477 -4.590625,0.00222719 -4.590372,-2.532929 -2.535478,-4.591317 -3.22144e-4,-4.591064 2.534834,-4.59081 4.589316,-2.535917 4.589063,-7.61094e-4"
           style="fill:none;stroke:#ff0000;stroke-width:0.36000001;stroke-linecap:round;stroke-linejoin:round;stroke-miterlimit:10;stroke-opacity:1"
           inkscape:connector-curvature="0" />
        <path
           id="path5477"
           transform="matrix(1e-4,-1,-1,-1e-4,1171.53,103.05005)"
           d="M 4.589113,-7.61089e-4 C 4.588859,2.534395 2.533966,4.588877 -0.00119011,4.588624 -2.536346,4.58837 -4.590828,2.533477 -4.590575,0.00222719 -4.590322,-2.532929 -2.535428,-4.591317 -2.72144e-4,-4.591064 2.534884,-4.59081 4.589366,-2.535917 4.589113,-7.61089e-4"
           style="fill:none;stroke:#ff0000;stroke-width:0.36000001;stroke-linecap:round;stroke-linejoin:round;stroke-miterlimit:10;stroke-opacity:1"
           inkscape:connector-curvature="0" />
        <path
           id="path5479"
           transform="matrix(1e-4,-1,-1,-1e-4,1099.53,103.05005)"
           d="M 4.589113,-7.61089e-4 C 4.588859,2.534395 2.533966,4.588877 -0.00119011,4.588624 -2.536346,4.58837 -4.590828,2.533477 -4.590575,0.00222719 -4.590322,-2.532929 -2.535428,-4.591317 -2.72144e-4,-4.591064 2.534884,-4.59081 4.589366,-2.535917 4.589113,-7.61089e-4"
           style="fill:none;stroke:#ff0000;stroke-width:0.36000001;stroke-linecap:round;stroke-linejoin:round;stroke-miterlimit:10;stroke-opacity:1"
           inkscape:connector-curvature="0" />
        <path
           id="path5481"
           transform="matrix(1e-4,-1,-1,-1e-4,1027.53,103.05005)"
           d="M 4.589113,-7.61089e-4 C 4.588859,2.534395 2.533966,4.588877 -0.00119011,4.588624 -2.536346,4.58837 -4.590828,2.533477 -4.590575,0.00222719 -4.590322,-2.532929 -2.535428,-4.591317 -2.72144e-4,-4.591064 2.534884,-4.59081 4.589366,-2.535917 4.589113,-7.61089e-4"
           style="fill:none;stroke:#ff0000;stroke-width:0.36000001;stroke-linecap:round;stroke-linejoin:round;stroke-miterlimit:10;stroke-opacity:1"
           inkscape:connector-curvature="0" />
        <path
           id="path5483"
           transform="matrix(1e-4,-1,-1,-1e-4,955.53003,103.05005)"
           d="M 4.589113,-7.61089e-4 C 4.588859,2.534395 2.533966,4.588877 -0.00119011,4.588624 -2.536346,4.58837 -4.590828,2.533477 -4.590575,0.00222719 -4.590322,-2.532929 -2.535428,-4.591317 -2.72144e-4,-4.591064 2.534884,-4.59081 4.589366,-2.535917 4.589113,-7.61089e-4"
           style="fill:none;stroke:#ff0000;stroke-width:0.36000001;stroke-linecap:round;stroke-linejoin:round;stroke-miterlimit:10;stroke-opacity:1"
           inkscape:connector-curvature="0" />
        <path
           id="path5485"
           transform="matrix(1e-4,-1,-1,-1e-4,883.53003,103.05005)"
           d="M 4.589113,-7.61089e-4 C 4.588859,2.534395 2.533966,4.588877 -0.00119011,4.588624 -2.536346,4.58837 -4.590828,2.533477 -4.590575,0.00222719 -4.590322,-2.532929 -2.535428,-4.591317 -2.72144e-4,-4.591064 2.534884,-4.59081 4.589366,-2.535917 4.589113,-7.61089e-4"
           style="fill:none;stroke:#ff0000;stroke-width:0.36000001;stroke-linecap:round;stroke-linejoin:round;stroke-miterlimit:10;stroke-opacity:1"
           inkscape:connector-curvature="0" />
        <path
           id="path5487"
           transform="matrix(1e-4,-1,-1,-1e-4,811.53003,1111.05)"
           d="M 4.589063,-7.61094e-4 C 4.588809,2.534395 2.533916,4.588877 -0.00124011,4.588624 -2.536396,4.58837 -4.590878,2.533477 -4.590625,0.00222719 -4.590372,-2.532929 -2.535478,-4.591317 -3.22144e-4,-4.591064 2.534834,-4.59081 4.589316,-2.535917 4.589063,-7.61094e-4"
           style="fill:none;stroke:#ff0000;stroke-width:0.36000001;stroke-linecap:round;stroke-linejoin:round;stroke-miterlimit:10;stroke-opacity:1"
           inkscape:connector-curvature="0" />
        <path
           id="path5489"
           transform="matrix(1e-4,-1,-1,-1e-4,811.53003,103.05005)"
           d="M 4.589113,-7.61089e-4 C 4.588859,2.534395 2.533966,4.588877 -0.00119011,4.588624 -2.536346,4.58837 -4.590828,2.533477 -4.590575,0.00222719 -4.590322,-2.532929 -2.535428,-4.591317 -2.72144e-4,-4.591064 2.534884,-4.59081 4.589366,-2.535917 4.589113,-7.61089e-4"
           style="fill:none;stroke:#ff0000;stroke-width:0.36000001;stroke-linecap:round;stroke-linejoin:round;stroke-miterlimit:10;stroke-opacity:1"
           inkscape:connector-curvature="0" />
        <path
           id="path5491"
           transform="matrix(1e-4,-1,-1,-1e-4,1117.53,985.04999)"
           d="M 90.089053,-2.35948e-5 C 90.09189,49.753883 49.759731,90.085787 0.00582489,90.088624 -49.748082,90.091461 -90.083893,49.763209 -90.090636,0.00930219 -90.093473,-49.744604 -49.76522,-90.084322 -0.0113134,-90.091065 49.742594,-90.097808 90.082311,-49.769556 90.089054,-0.0156486"
           style="fill:none;stroke:#ff0000;stroke-width:0.36000001;stroke-linecap:round;stroke-linejoin:round;stroke-miterlimit:10;stroke-opacity:1"
           inkscape:connector-curvature="0" />
        <path
           id="path5493"
           transform="matrix(1e-4,-1,-1,-1e-4,1117.53,229.04999)"
           d="M 90.089053,-2.35947e-5 C 90.09189,49.753883 49.759731,90.085787 0.00582489,90.088624 -49.748082,90.091461 -90.083893,49.763209 -90.090636,0.00930219 -90.093473,-49.744604 -49.76522,-90.084322 -0.0113134,-90.091065 49.742594,-90.097808 90.082311,-49.769556 90.089054,-0.0156486"
           style="fill:none;stroke:#ff0000;stroke-width:0.36000001;stroke-linecap:round;stroke-linejoin:round;stroke-miterlimit:10;stroke-opacity:1"
           inkscape:connector-curvature="0" />
        <path
           id="path5495"
           transform="matrix(1,0,0,-1,0,1224)"
           d="m 1333.6211,977.03906 0,180.00004"
           style="fill:none;stroke:#ff0000;stroke-width:0.36000001;stroke-linecap:round;stroke-linejoin:round;stroke-miterlimit:10;stroke-opacity:1"
           inkscape:connector-curvature="0" />
        <path
           id="path5497"
           transform="matrix(-0.5527,-0.83338,-0.83338,0.5527,1572.39,607.04999)"
           d="M 432.09122,-0.00123317 C 432.08899,144.81713 359.54362,280.00425 238.86726,360.06059 118.1909,440.11693 -34.567363,454.39871 -167.99071,398.09669"
           style="fill:none;stroke:#ff0000;stroke-width:0.36000001;stroke-linecap:round;stroke-linejoin:round;stroke-miterlimit:10;stroke-opacity:1"
           inkscape:connector-curvature="0" />
        <path
           id="path5499"
           transform="matrix(1,0,0,-1,0,1224)"
           d="m 1333.6211,1157.0391 -558.00001,0 0,-1080.000037 558.00001,0 0,179.999997"
           style="fill:none;stroke:#ff0000;stroke-width:0.36000001;stroke-linecap:round;stroke-linejoin:round;stroke-miterlimit:10;stroke-opacity:1"
           inkscape:connector-curvature="0" />
      </g>
    </g>
  </g>
</svg>
